Simulation
nRows=48
nColumns=15
endheader
time  TH_x TH_y TH_z SC_y  SC_z  SC_x  AC_y  AC_z  AC_x  GH_y  GH_z  GH_yy  EL_x  PS_y
0.0  0.000000  0.000000  0.000000  -40.97484877243665  6.293857566463187  5.290427962726946  48.783555343464705  1.0999519381269216  2.887097936978257  -65.4863928299539  2.906716762972162  86.05629006078603  22.58340004296118  120.000000
0.05745  0.000000  0.000000  0.000000  -40.187389774770296  4.996560690529964  3.2065795218822486  48.64535221195355  2.2081476679210867  3.058821898215927  -46.8604444031629  4.961787696155942  66.80584810387631  22.00073540640777  120.000000
0.1149  0.000000  0.000000  0.000000  -39.446767530652124  3.587559465302451  1.1941277085560749  48.60926774392754  3.169023136546844  3.3134867617934933  -38.6989615040683  7.0142989968776375  58.00717399268273  21.609768102885663  120.000000
0.17235  0.000000  0.000000  0.000000  -38.82705402477812  2.223896478021982  -0.7109759683296423  48.65965460191139  4.0122512976234015  3.6350711702445677  -33.349614530790134  8.983613064859995  51.993237599713524  21.48144000847643  120.000000
0.2298  0.000000  0.000000  0.000000  -38.38860731556321  1.0284859179008914  -2.463071045238232  48.73734916600634  4.777049048576088  4.0242843779901785  -29.115482026563022  10.946929832838581  47.065587078126114  21.611858458817824  120.000000
0.28725  0.000000  0.000000  0.000000  -38.15581106893482  0.08588879322250309  -4.0248414805031425  48.79562114095106  5.502900261500156  4.473668429057696  -25.487950581176854  13.000167276490378  42.71769971085546  21.93789659195946  120.000000
0.3447  0.000000  0.000000  0.000000  -38.15173589888862  -0.5367301350603936  -5.3703304998041235  48.8078817578667  6.219924905368627  4.967222463190942  -22.24813054209642  15.224932530656835  38.72329779583521  22.36195711370231  120.000000
0.40215  0.000000  0.000000  0.000000  -38.402801838033874  -0.8036179424512543  -6.475498827463781  48.75738237081384  6.939939967822284  5.500877002710297  -19.29039187110565  17.677551463598807  34.962132313298156  22.776753731212285  120.000000
0.4596  0.000000  0.000000  0.000000  -38.92981395542908  -0.7067055391561274  -7.323866388176671  48.64870942034061  7.656996842613049  6.074334423614883  -16.56217565721127  20.381421327173683  31.36115442738102  23.092346230368744  120.000000
0.51705  0.000000  0.000000  0.000000  -39.726996605109  -0.2549200472611363  -7.900749085159826  48.50444929228745  8.355807083836078  6.6912379885606565  -14.069491463771827  23.318503920801874  27.906751946406846  23.25174314380702  120.000000
0.5745  0.000000  0.000000  0.000000  -40.75826758736851  0.5267310677644537  -8.186565691008017  48.3574962805242  9.025773053325107  7.358864543459567  -11.843411888745868  26.421022474605785  24.612128498242395  23.236865427323245  120.000000
0.63195  0.000000  0.000000  0.000000  -41.95485773199408  1.5939152259781417  -8.15813771749293  48.25324109204025  9.664675269251104  8.08269221235572  -9.90865378516104  29.566667708392902  21.48776843564919  23.061207637650256  120.000000
0.6894  0.000000  0.000000  0.000000  -43.23950567782273  2.8772311145089287  -7.785052566844013  48.227390384940435  10.282336038266005  8.869238116826994  -8.27715458681213  32.598663894050596  18.52931878782221  22.753342674035768  120.000000
0.74685  0.000000  0.000000  0.000000  -44.53797483216506  4.314583040732686  -7.033566818594359  48.30895288689894  10.902946014670173  9.708627700776491  -6.943761468229916  35.36745339801294  15.71287706222132  22.34524906852967  120.000000
0.8043  0.000000  0.000000  0.000000  -45.79843831423919  5.85146851980878  -5.8714273699556845  48.510216285292515  11.55298445843809  10.58306833076098  -5.887277389105409  37.76450414318339  13.003141642416017  21.869911808142184  120.000000
0.86175  0.000000  0.000000  0.000000  -46.99306346550097  7.43096941770208  -4.280414738768706  48.8197092081807  12.242027358774832  11.481313707994762  -5.076022947038334  39.734259972506784  10.372729521110667  21.359205274884165  120.000000
0.9192  0.000000  0.000000  0.000000  -48.11870360705624  9.00069008059701  -2.2721777575832918  49.20851529178668  12.961034118754116  12.391517936010509  -4.471680710788669  41.279548233177564  7.819942696743798  20.84519932495284  120.000000
0.97665  0.000000  0.000000  0.000000  -49.18639102939931  10.511133888201169  0.11083260621213137  49.63099156889601  13.684963109528782  13.305220780110876  -4.041430012852603  42.45475107620257  5.38631404273368  20.351227257221876  120.000000
1.0341  0.000000  0.000000  0.000000  -50.21158883064163  11.9165663620526  2.79641658875669  50.039947469597664  14.378553865858946  14.213174477589192  -3.755707176132963  43.347346732184825  3.1535186139164413  19.890710623727077  120.000000
1.09155  0.000000  0.000000  0.000000  -51.20206704529208  13.174178045581407  5.686838907016194  50.39731819165793  15.002441638028767  15.104035894194476  -3.589687125339151  44.05900871600235  1.2270421920396262  19.464717927027753  120.000000
1.149  0.000000  0.000000  0.000000  -52.15482062609718  14.248254393808663  8.666832443518569  50.68333717857567  15.519698840108948  15.960319371054497  -3.5173876094506964  44.68596589029342  -0.2984857801460627  19.068153481041165  120.000000
1.20645  0.000000  0.000000  0.000000  -53.05617835268765  15.116375475329558  11.611626359144704  50.900252533689525  15.90292614271693  16.75635787721345  -3.50766762802752  45.30553065839154  -1.3757269140956785  18.695236548257927  120.000000
1.2639  0.000000  0.000000  0.000000  -53.88488005565463  15.7717409917645  14.39837324846092  51.06633304272337  16.140037445916786  17.459796626476276  -3.523573289218662  45.963559902977586  -2.028896090455044  18.344444935165725  120.000000
1.32135  0.000000  0.000000  0.000000  -54.61543171196406  16.22410343778078  16.91365994088806  51.20767507956465  16.23705412283085  18.03418802774155  -3.527076469152612  46.669620241314426  -2.3536134751102176  18.019600751007154  120.000000
1.3788  0.000000  0.000000  0.000000  -55.21938704913562  16.495873609487987  19.058920586953846  51.34614140047369  16.215069548953956  18.44532087350691  -3.487224150534629  47.39837642717399  -2.492370044946239  17.728283133176575  120.000000
1.43625  0.000000  0.000000  0.000000  -55.66787723562512  16.617971059035725  20.750470404528542  51.493734509250906  16.10259205281  18.665944795131473  -3.385773831282369  48.0988962333782  -2.5980103587797325  17.479548137749575  120.000000
1.4937  0.000000  0.000000  0.000000  -55.93372352542908  16.625481346550334  21.91774996047728  51.65122154244587  15.92580356085421  18.680066939675957  -3.2183954542368896  48.707671213971835  -2.8015671516917124  17.28153370711049  120.000000
1.55115  0.000000  0.000000  0.000000  -55.9963874883626  16.551682936712748  22.501616674900248  51.8131530167059  15.700472684526593  18.48472032213953  -2.9909997969112525  49.16280637962028  -3.1910451569906075  17.140679500182845  120.000000
1.6086  0.000000  0.000000  0.000000  -55.845276319964164  16.42121667302418  22.456472204716135  51.972268649042334  15.428190147183896  18.09155727876106  -2.714693294389754  49.41626381957661  -3.804990918381663  17.06087211998492  120.000000
1.66605  0.000000  0.000000  0.000000  -55.48151079124788  16.240793447789276  21.75719603642239  52.12118029039418  15.09918143425175  17.52822923379859  -2.400045521928214  49.44241737681984  -4.635650210667417  17.042405057159183  120.000000
1.7235  0.000000  0.000000  0.000000  -54.916541478256576  15.992448840739131  20.409516392744933  52.24990346121995  14.699969448483365  16.837853320427794  -2.0535268812112597  49.24074370357434  -5.639017267283968  17.07895140886015  120.000000
1.78095  0.000000  0.000000  0.000000  -54.17210470139077  15.634367858599516  18.45884871635961  52.3440697216961  14.223436609315415  16.073607869954735  -1.678786352819515  48.83221406821943  -6.745264212151653  17.154531501816265  120.000000
1.8384  0.000000  0.000000  0.000000  -53.28166888976926  15.112712949688332  15.99228448267145  52.38536060951595  13.675772117949595  15.287893763087013  -1.2834807171529636  48.2483152442016  -7.870183487749758  17.244425044386432  120.000000
1.89585  0.000000  0.000000  0.000000  -52.29073278738913  14.379597609551247  13.1330340983364  52.353612991956325  13.078020318428926  14.52361730282126  -0.8861364859683806  47.516429484943814  -8.926739419595242  17.320749845322688  120.000000
1.9533  0.000000  0.000000  0.000000  -51.25093915059099  13.411253899489305  10.027305544584612  52.23031711039555  12.46460212852982  13.808565918188684  -0.5191997944858555  46.64752269392216  -9.839878208181412  17.360836999656108  120.000000
2.01075  0.000000  0.000000  0.000000  -50.210689940982064  12.217379397110026  6.828533346404161  52.001489417172266  11.879113264437516  13.15498330188173  -0.22697919621861923  45.6285223443785  -10.5593019387078  17.353470399723868  120.000000
2.0682  0.000000  0.000000  0.000000  -49.204456764454896  10.840183305441405  3.6813549471404166  51.661919445820565  11.369904412136181  12.562318544442583  -0.05825032478012323  44.42254719395552  -11.067739497539693  17.29936057198989  120.000000
2.1256500000000003  0.000000  0.000000  0.000000  -48.24538797933843  9.345299882390044  0.7100802435667625  51.21986918426668  10.984289517687333  12.021407656496423  -0.055842515020060914  42.97494578213063  -11.375980550325105  17.205165349483654  120.000000
2.1831  0.000000  0.000000  0.000000  -47.325384352734375  7.807182853327448  -1.988576586733065  50.69693645659925  10.759989695418607  11.521431791915587  -0.2501126590641315  41.22568119111914  -11.502426104602728  17.073692290690683  120.000000
2.24055  0.000000  0.000000  0.000000  -46.42082511181907  6.299934204619114  -4.350631874920185  50.126170278200085  10.714314560149193  11.053514781076847  -0.6570026777857183  39.12621870027897  -11.443112002333423  16.896077559506395  120.000000
2.298  0.000000  0.000000  0.000000  -45.50340591733895  4.885817382157521  -6.344267356464069  49.54564107720793  10.835861146750116  10.617154464952236  -1.2802000166373113  36.66101566573189  -11.150257640965512  16.652384914916407  120.000000
2.3554500000000003  0.000000  0.000000  0.000000  -44.55121465566701  3.6101065793060085  -7.970661089833803  48.998683024717984  11.0814528009397  10.2168609834043  -2.1155020519736834  33.86368970453609  -10.530007766369152  16.32153097354587  120.000000
2.4129  0.000000  0.000000  0.000000  -43.56031739125883  2.4906445602051135  -9.256324327319149  48.52632929050067  11.382196679070942  9.86416952142215  -3.16161873680483  30.81979893570914  -9.455586517921477  15.895409517557791  120.000000
2.47035  0.000000  0.000000  0.000000  -42.551684268625166  1.5286939884252582  -10.238111836609677  48.161684807429026  11.668272913951894  9.571939774658592  -4.43093394998942  27.66483681937506  -7.7886365111151425  15.39367417689288  120.000000
2.5278  0.000000  0.000000  0.000000  -41.557224929985175  0.726538011015109  -10.952931479852742  47.93421127161568  11.892094727457112  9.339594192057838  -5.953897353471855  24.56074305103289  -5.40341125571087  14.865459035887321  120.000000
2.5852500000000003  0.000000  0.000000  0.000000  -40.61005429049881  0.06927193377707239  -11.429787646211812  47.8627106716032  12.027255200238573  9.160887152613837  -7.768290879419354  21.652709984538017  -2.2130134663145498  14.37624311417442  120.000000
2.6427  0.000000  0.000000  0.000000  -39.733608276247466  -0.46761784602401946  -11.68904046267906  47.95436111707097  12.066418005816113  9.029472058262524  -9.880216269689965  19.038759072509226  1.7806214292320008  13.988648214418445  120.000000
2.70015  0.000000  0.000000  0.000000  -38.94485395518454  -0.8991704197149207  -11.746479954151681  48.205125818801555  12.019791672664278  8.935653292572164  -12.202985156542917  16.764034674680378  6.418362645924271  13.747695915862792  120.000000
